<svg width="56" height="40" viewBox="0 0 56 40" fill="none" xmlns="http://www.w3.org/2000/svg">
<path d="M52 0H4C2.93913 0 1.92172 0.421427 1.17157 1.17157C0.421427 1.92172 0 2.93913 0 4V36C0 37.0609 0.421427 38.0783 1.17157 38.8284C1.92172 39.5786 2.93913 40 4 40H52C53.0609 40 54.0783 39.5786 54.8284 38.8284C55.5786 38.0783 56 37.0609 56 36V4C56 2.93913 55.5786 1.92172 54.8284 1.17157C54.0783 0.421427 53.0609 0 52 0ZM47.6 4L28 17.56L8.4 4H47.6ZM4 36V5.82L26.86 21.64C27.1948 21.8723 27.5925 21.9967 28 21.9967C28.4075 21.9967 28.8052 21.8723 29.14 21.64L52 5.82V36H4Z" fill="#161420"/>
</svg>
