<svg width="51" height="48" viewBox="0 0 51 48" fill="none" xmlns="http://www.w3.org/2000/svg">
<path d="M43 0C45.1217 0 47.1566 0.842855 48.6569 2.34315C50.1572 3.84344 51 5.87827 51 8C51 10.1217 50.1572 12.1566 48.6569 13.6569C47.1566 15.1571 45.1217 16 43 16H35C33.3454 16.0003 31.7314 15.4876 30.3803 14.5324C29.0292 13.5773 28.0075 12.2267 27.456 10.6667H24.3333C21.4 10.6667 19 13.0667 19 16V16.456C20.5608 17.0068 21.9123 18.0282 22.8683 19.3793C23.8243 20.7305 24.3377 22.3449 24.3377 24C24.3377 25.6551 23.8243 27.2695 22.8683 28.6207C21.9123 29.9718 20.5608 30.9932 19 31.544V32C19 34.9333 21.4 37.3333 24.3333 37.3333H27.4533C28.006 35.7736 29.0284 34.4233 30.3798 33.4683C31.7311 32.5132 33.3452 32.0003 35 32H43C45.1217 32 47.1566 32.8429 48.6569 34.3431C50.1572 35.8434 51 37.8783 51 40C51 42.1217 50.1572 44.1566 48.6569 45.6569C47.1566 47.1571 45.1217 48 43 48H35C33.3454 48.0003 31.7314 47.4876 30.3803 46.5324C29.0292 45.5773 28.0075 44.2267 27.456 42.6667H24.3333C18.44 42.6667 13.6667 37.8933 13.6667 32H8.33334C6.21161 32 4.17678 31.1571 2.67649 29.6569C1.1762 28.1566 0.333344 26.1217 0.333344 24C0.333344 21.8783 1.1762 19.8434 2.67649 18.3431C4.17678 16.8429 6.21161 16 8.33334 16H13.6667C13.6667 10.1067 18.44 5.33333 24.3333 5.33333H27.4533C28.006 3.77357 29.0284 2.42333 30.3798 1.46828C31.7311 0.513241 33.3452 0.000301791 35 0H43ZM43 37.3333H35C34.2928 37.3333 33.6145 37.6143 33.1144 38.1144C32.6143 38.6145 32.3333 39.2928 32.3333 40C32.3333 40.7072 32.6143 41.3855 33.1144 41.8856C33.6145 42.3857 34.2928 42.6667 35 42.6667H43C43.7073 42.6667 44.3855 42.3857 44.8856 41.8856C45.3857 41.3855 45.6667 40.7072 45.6667 40C45.6667 39.2928 45.3857 38.6145 44.8856 38.1144C44.3855 37.6143 43.7073 37.3333 43 37.3333ZM16.3333 21.3333H8.33334C7.6261 21.3333 6.94782 21.6143 6.44773 22.1144C5.94763 22.6145 5.66668 23.2928 5.66668 24C5.66668 24.7072 5.94763 25.3855 6.44773 25.8856C6.94782 26.3857 7.6261 26.6667 8.33334 26.6667H16.3333C17.0406 26.6667 17.7189 26.3857 18.219 25.8856C18.7191 25.3855 19 24.7072 19 24C19 23.2928 18.7191 22.6145 18.219 22.1144C17.7189 21.6143 17.0406 21.3333 16.3333 21.3333ZM43 5.33333H35C34.2928 5.33333 33.6145 5.61429 33.1144 6.11438C32.6143 6.61448 32.3333 7.29276 32.3333 8C32.3333 8.70724 32.6143 9.38552 33.1144 9.88562C33.6145 10.3857 34.2928 10.6667 35 10.6667H43C43.7073 10.6667 44.3855 10.3857 44.8856 9.88562C45.3857 9.38552 45.6667 8.70724 45.6667 8C45.6667 7.29276 45.3857 6.61448 44.8856 6.11438C44.3855 5.61429 43.7073 5.33333 43 5.33333Z" fill="#161420"/>
</svg>
