<svg width="54" height="52" viewBox="0 0 54 52" fill="none" xmlns="http://www.w3.org/2000/svg">
<path d="M16.3333 11.2623V5.84154C16.3333 4.35083 16.856 3.07424 17.9013 2.01177C18.9449 0.951108 20.2 0.420776 21.6666 0.420776H32.3333C33.8 0.420776 35.056 0.951108 36.1013 2.01177C37.1449 3.07424 37.6666 4.35083 37.6666 5.84154V11.2623H48.3333C49.8 11.2623 51.056 11.7935 52.1013 12.856C53.1449 13.9167 53.6666 15.1924 53.6666 16.6831V46.4973C53.6666 47.988 53.1449 49.2646 52.1013 50.327C51.056 51.3877 49.8 51.918 48.3333 51.918H5.66665C4.19998 51.918 2.94487 51.3877 1.90131 50.327C0.85598 49.2646 0.333313 47.988 0.333313 46.4973V16.6831C0.333313 15.1924 0.85598 13.9167 1.90131 12.856C2.94487 11.7935 4.19998 11.2623 5.66665 11.2623H16.3333ZM21.6666 11.2623H32.3333V5.84154H21.6666V11.2623ZM48.3333 35.6557H35V41.0765H19V35.6557H5.66665V46.4973H48.3333V35.6557ZM24.3333 35.6557H29.6666V30.235H24.3333V35.6557ZM5.66665 30.235H19V24.8142H35V30.235H48.3333V16.6831H5.66665V30.235Z" fill="#161420"/>
</svg>
